<?xml version="1.0" encoding="UTF-8" standalone="no"?>
<svg width="58px" height="58px" viewBox="0 0 58 58" version="1.1" xmlns="http://www.w3.org/2000/svg" xmlns:xlink="http://www.w3.org/1999/xlink">
    <!-- Generator: Sketch 39.1 (31720) - http://www.bohemiancoding.com/sketch -->
    <title>cinemalice-logo</title>
    <desc>Created with Sketch.</desc>
    <defs></defs>
    <g id="Page-1" stroke="none" stroke-width="1" fill="none" fill-rule="evenodd">
        <g id="cinemalice-logo">
            <g id="Cinemalice-Logo" transform="translate(3.000000, 5.000000)" stroke="#000000" stroke-width="2" stroke-linecap="round">
                <path d="M12.3724087,16 L18.7601491,16" id="Stroke-60"></path>
                <path d="M0.672393736,44.631381 C1.28274422,46.90374 3.3708874,48.5923949 5.84214765,48.5923949 L45.2904101,48.5923949 C47.7612826,48.5923949 49.8494258,46.90374 50.4601641,44.631381 M0.250887397,26.9930333 C0.357524236,24.5545077 0.464161074,23.5474833 0.964384787,22.2551611 C1.698434,20.3606291 3.67645041,19.1084028 5.84214765,19.1084028 L45.2904101,19.1084028 C47.4526174,19.1084028 49.3216704,20.4011105 50.1639075,22.2466793 C50.2845041,22.510387 51.2054586,24.696 51.2054586,26.8692758" id="Stroke-61" stroke-linejoin="round"></path>
                <path d="M23.1097688,13.6206598 L8.02278896,13.6206598 C6.74314691,13.6206598 5.69616704,12.5797081 5.69616704,11.3074339 L5.69616704,2.31322593 C5.69616704,1.04095167 6.74314691,0 8.02278896,0 L23.1097688,0 C24.3894109,0 25.4363908,1.04095167 25.4363908,2.31322593 L25.4363908,11.3074339 C25.4363908,12.5797081 24.3894109,13.6206598 23.1097688,13.6206598 L23.1097688,13.6206598 Z" id="Stroke-62"></path>
            </g>
            <text id="C" font-family="Cinzel-Regular, Cinzel" font-size="27" font-weight="normal" fill="#DCC49B">
                <tspan x="17" y="49">C</tspan>
            </text>
        </g>
    </g>
</svg>